<?xml version="1.0" standalone="no"?>
<!DOCTYPE svg PUBLIC "-//W3C//DTD SVG 20010904//EN"
 "http://www.w3.org/TR/2001/REC-SVG-20010904/DTD/svg10.dtd">
<svg version="1.0" xmlns="http://www.w3.org/2000/svg"
 width="251.000000pt" height="251.000000pt" viewBox="0 0 251.000000 251.000000"
 preserveAspectRatio="xMidYMid meet">
<metadata>
Created by potrace 1.11, written by Peter Selinger 2001-2013
</metadata>
<g transform="translate(0.000000,251.000000) scale(0.100000,-0.100000)"
fill="#000000" stroke="none">
<path d="M1197 2504 c-1 -1 -35 -4 -76 -8 -203 -16 -436 -109 -616 -245 -242
-184 -417 -465 -476 -766 -15 -77 -19 -339 -6 -420 70 -437 372 -812 786 -975
339 -133 766 -99 1076 88 381 229 613 623 618 1050 3 227 -36 399 -134 593
-184 367 -558 628 -964 675 -56 6 -203 12 -208 8z m288 -109 c232 -48 422
-151 591 -320 222 -222 336 -490 338 -795 1 -144 -6 -210 -34 -320 -51 -200
-158 -381 -314 -534 -226 -220 -504 -332 -821 -330 -526 4 -988 369 -1115 882
-26 105 -32 160 -32 277 -1 347 151 670 420 894 168 140 400 241 592 258 36 3
67 7 70 9 10 10 231 -6 305 -21z"/>
<path d="M1148 2325 c-1 -1 -28 -6 -58 -9 -127 -15 -310 -88 -442 -177 -84
-56 -222 -197 -281 -286 -160 -241 -215 -515 -162 -812 27 -157 126 -350 253
-498 138 -160 395 -307 592 -338 19 -3 58 -9 85 -13 57 -9 208 -8 275 2 163
25 317 86 455 179 84 57 233 209 287 292 128 199 179 377 174 610 -4 147 -5
156 -37 275 -75 276 -290 534 -559 670 -65 33 -195 78 -250 86 -19 3 -55 10
-80 14 -42 8 -244 12 -252 5z m317 -38 c338 -75 602 -285 746 -593 65 -138 91
-255 93 -414 1 -175 -7 -230 -54 -368 -57 -164 -146 -299 -277 -421 -416 -390
-1055 -379 -1458 25 -338 338 -405 849 -166 1267 53 92 79 125 171 217 152
153 350 256 567 293 98 17 285 14 378 -6z"/>
<path d="M1818 1883 c-18 -22 -108 -206 -108 -222 0 -6 -4 -11 -8 -11 -9 0 -8
77 2 116 5 19 3 25 -6 22 -20 -7 -62 -75 -106 -173 -32 -70 -48 -94 -74 -110
-18 -11 -41 -27 -51 -36 -20 -18 -51 -32 -182 -83 -104 -40 -147 -50 -225 -48
-83 2 -93 6 -114 41 -17 29 -17 33 -2 55 8 14 24 27 35 31 11 3 18 11 16 18
-10 31 -13 82 -5 92 7 8 2 16 -13 24 -13 7 -31 27 -41 44 -24 45 -60 68 -106
69 -45 0 -101 -28 -114 -59 -6 -13 -19 -20 -34 -20 -29 0 -42 -18 -42 -56 0
-42 16 -66 40 -60 16 4 20 0 20 -19 0 -35 48 -77 83 -73 28 4 28 4 22 -43 -3
-25 -11 -68 -17 -95 -19 -91 6 -173 137 -452 18 -38 36 -88 40 -110 3 -22 13
-50 20 -62 31 -47 195 -73 261 -42 28 14 82 111 177 320 29 64 47 86 113 145
115 102 114 101 114 137 0 18 6 41 13 52 7 11 19 40 26 65 7 25 29 82 49 127
34 77 40 84 75 93 20 6 37 16 38 23 1 7 2 41 4 77 2 36 6 95 8 132 8 101 -8
134 -45 91z m-513 -670 c-14 -21 -37 -56 -52 -78 -14 -22 -34 -47 -43 -55 -9
-8 -25 -29 -35 -47 -18 -31 -19 -31 -32 -13 -13 18 -16 58 -13 146 2 28 6 32
53 47 46 14 119 33 140 36 4 1 -4 -16 -18 -36z"/>
</g>
</svg>
